<svg width="83" height="41" viewBox="0 0 83 41" fill="none" xmlns="http://www.w3.org/2000/svg">
<path d="M56.0528 40.2409C55.4601 40.2409 54.8684 40.1618 54.2757 40.0037C53.6967 39.8455 53.144 39.5756 52.6177 39.1947C52.5123 39.1292 52.4405 39.0502 52.4005 38.9575C52.3741 38.852 52.3678 38.7466 52.3805 38.642C52.4068 38.5366 52.4532 38.4511 52.5186 38.3857C52.5977 38.3066 52.6895 38.2603 52.795 38.2475C52.9004 38.2348 53.0122 38.2675 53.1304 38.3466C53.644 38.6884 54.1439 38.9256 54.6311 39.0574C55.1183 39.1892 55.6046 39.2547 56.0918 39.2547C56.8945 39.2547 57.5062 39.1038 57.928 38.8011C58.3497 38.4984 58.5597 38.0903 58.5597 37.5776C58.5597 37.1568 58.4216 36.8341 58.1452 36.6105C57.8816 36.3732 57.448 36.1823 56.8427 36.0378L55.1256 35.6433C54.2966 35.4588 53.6849 35.1634 53.2895 34.7552C52.895 34.3344 52.6968 33.7944 52.6968 33.1363C52.6968 32.57 52.8413 32.0774 53.1313 31.6556C53.434 31.2348 53.8548 30.9121 54.3948 30.6885C54.9474 30.4512 55.5792 30.333 56.29 30.333C56.869 30.333 57.4217 30.4185 57.948 30.5894C58.4743 30.7603 58.9351 31.0239 59.3296 31.3793C59.4351 31.4584 59.5005 31.5502 59.5269 31.6556C59.566 31.7611 59.566 31.8665 59.5269 31.971C59.5005 32.0628 59.4478 32.1419 59.3687 32.2083C59.2896 32.2737 59.1978 32.3073 59.0924 32.3073C58.9869 32.3073 58.8751 32.2683 58.757 32.1892C58.3752 31.8992 57.9743 31.6892 57.5526 31.5574C57.1317 31.4129 56.7036 31.3402 56.2691 31.3402C55.5055 31.3402 54.9138 31.4984 54.492 31.8138C54.0839 32.1292 53.8803 32.5573 53.8803 33.0973C53.8803 33.5054 54.0057 33.8344 54.2557 34.0844C54.5193 34.3344 54.9265 34.5253 55.4792 34.6571L57.1963 35.0516C58.0516 35.2488 58.6897 35.5451 59.1115 35.9396C59.5323 36.3214 59.7432 36.8413 59.7432 37.4994C59.7432 38.3421 59.4078 39.0129 58.7361 39.5128C58.0798 39.9973 57.1844 40.2409 56.0528 40.2409Z" fill="white"/>
<path d="M75.2458 40.2409C74.3641 40.2409 73.6797 39.9646 73.1924 39.412C72.7189 38.8593 72.4816 38.0757 72.4816 37.0631V26.659C72.4816 26.4481 72.5343 26.2972 72.6398 26.2054C72.7452 26.0999 72.8961 26.0472 73.0934 26.0472C73.2779 26.0472 73.4224 26.0999 73.5279 26.2054C73.6333 26.2972 73.686 26.449 73.686 26.659V36.9241C73.686 37.6876 73.8378 38.2603 74.1396 38.6411C74.4423 39.0093 74.8831 39.1938 75.4622 39.1938C75.594 39.1938 75.7058 39.1874 75.7976 39.1738C75.8894 39.1602 75.9821 39.1538 76.0739 39.1538C76.1921 39.1411 76.2775 39.1665 76.3302 39.2329C76.3957 39.2856 76.4293 39.4038 76.4293 39.5883C76.4293 39.7728 76.383 39.911 76.2912 40.0028C76.1993 40.0946 76.0475 40.161 75.8376 40.2C75.7458 40.2128 75.6467 40.22 75.5412 40.22C75.4503 40.2337 75.3513 40.2409 75.2458 40.2409Z" fill="white"/>
<path d="M81.1943 40.2409C80.4835 40.2409 79.8917 40.1091 79.4172 39.8464C78.9436 39.5828 78.5882 39.2083 78.351 38.7211C78.1138 38.2212 77.9956 37.6094 77.9956 36.885V31.4765H76.5349C76.364 31.4765 76.2258 31.4375 76.1204 31.3584C76.0149 31.2666 75.9622 31.1411 75.9622 30.983C75.9622 30.8384 76.0149 30.7266 76.1204 30.6476C76.2258 30.5557 76.364 30.5094 76.5349 30.5094H77.9956V28.0415C77.9956 27.8306 78.0483 27.6797 78.1537 27.5879C78.2592 27.4825 78.4101 27.4298 78.6073 27.4298C78.7918 27.4298 78.9364 27.4825 79.0418 27.5879C79.1473 27.6797 79.2 27.8315 79.2 28.0415V30.5094H81.8651C82.0496 30.5094 82.1878 30.5557 82.2796 30.6476C82.3714 30.7266 82.4178 30.8384 82.4178 30.983C82.4178 31.1411 82.3714 31.2657 82.2796 31.3584C82.1878 31.4375 82.0496 31.4765 81.8651 31.4765H79.2V36.7277C79.2 37.5304 79.3645 38.1421 79.6936 38.5639C80.0226 38.9847 80.5689 39.1956 81.3325 39.1956C81.5961 39.1956 81.8124 39.1692 81.9842 39.1165C82.1687 39.0511 82.3196 39.0174 82.4378 39.0174C82.5296 39.0174 82.6087 39.0565 82.675 39.1356C82.7541 39.2147 82.7932 39.3392 82.7932 39.511C82.7932 39.6165 82.7668 39.7219 82.7141 39.8264C82.675 39.9319 82.5959 39.9973 82.4769 40.0237C82.3323 40.0764 82.1351 40.1228 81.8842 40.1619C81.6351 40.2146 81.4052 40.2409 81.1943 40.2409Z" fill="white"/>
<path d="M76.982 19.668C77.482 19.668 77.9138 19.5471 78.2773 19.3044C78.6409 19.0617 78.9291 18.7063 79.1409 18.2363C79.3527 17.7519 79.459 17.1383 79.459 16.3957C79.459 15.2894 79.2318 14.4786 78.7773 13.9641C78.3228 13.4342 77.7247 13.1688 76.982 13.1688C76.4976 13.1688 76.0658 13.2824 75.6867 13.5096C75.3232 13.7369 75.035 14.0932 74.8232 14.5777C74.626 15.0476 74.5278 15.653 74.5278 16.3957C74.5278 17.5019 74.755 18.3272 75.2095 18.8726C75.664 19.4026 76.2549 19.668 76.982 19.668ZM76.982 22.2359C75.7849 22.2359 74.7396 22.0013 73.8461 21.5314C72.9671 21.0615 72.2853 20.3879 71.8009 19.5089C71.3164 18.6299 71.0737 17.5919 71.0737 16.3957C71.0737 15.5021 71.21 14.6986 71.4827 13.9869C71.7554 13.2751 72.149 12.6688 72.6644 12.1689C73.1943 11.6535 73.8233 11.2672 74.5505 11.01C75.2777 10.7373 76.0885 10.6009 76.982 10.6009C78.1792 10.6009 79.2172 10.8354 80.0953 11.3054C80.9888 11.7753 81.6787 12.4416 82.1632 13.3051C82.6632 14.1687 82.9131 15.1994 82.9131 16.3957C82.9131 17.3046 82.7695 18.1155 82.4814 18.8272C82.2087 19.5389 81.8151 20.1534 81.2997 20.6679C80.7843 21.1833 80.1562 21.5769 79.4136 21.8495C78.6864 22.1077 77.8756 22.2359 76.982 22.2359Z" fill="white"/>
<path fill-rule="evenodd" clip-rule="evenodd" d="M36.8405 40.0428C36.945 40.1482 37.0968 40.201 37.2941 40.201C37.505 40.201 37.6559 40.1482 37.7486 40.0437C37.854 39.9392 37.9067 39.7874 37.9067 39.5901V34.4771C37.9067 33.5827 38.1631 32.8718 38.6766 32.3455C39.1902 31.8192 39.9138 31.5093 40.8482 31.4175L41.1245 31.3975C41.3345 31.3711 41.4863 31.312 41.5781 31.2202C41.6699 31.1148 41.709 30.9702 41.6963 30.7857C41.6963 30.6139 41.6436 30.4894 41.5381 30.4103C41.4336 30.3312 41.3018 30.2985 41.1436 30.3112C40.2883 30.3249 39.5511 30.5421 38.933 30.963C38.4696 31.2851 38.1143 31.7117 37.8667 32.2422V31.0021C37.8667 30.7921 37.814 30.6339 37.7086 30.5285C37.6168 30.423 37.4786 30.3703 37.2941 30.3703C37.0968 30.3703 36.946 30.423 36.8405 30.5285C36.7351 30.6339 36.6823 30.7912 36.6823 31.0021V39.5892C36.6823 39.7865 36.7351 39.9373 36.8405 40.0428Z" fill="white"/>
<path fill-rule="evenodd" clip-rule="evenodd" d="M44.5368 39.6483C45.2477 40.0437 46.0967 40.241 47.0838 40.241C47.6765 40.241 48.2682 40.1546 48.8591 39.9846C49.4508 39.8001 49.958 39.5365 50.3789 39.1947C50.5098 39.102 50.5961 39.0038 50.6352 38.8984C50.6879 38.7802 50.6943 38.6748 50.6552 38.583C50.6297 38.4775 50.5698 38.3921 50.4779 38.3266C50.3998 38.2603 50.2943 38.2276 50.1625 38.2276C50.0435 38.2276 49.9189 38.2739 49.7871 38.3657C49.3526 38.6811 48.9054 38.9048 48.4446 39.0366C47.9973 39.1684 47.5301 39.2338 47.0429 39.2338C45.924 39.2338 45.055 38.8975 44.4369 38.2267C43.857 37.5855 43.5491 36.6907 43.5125 35.5415H50.3198C50.4907 35.5415 50.6225 35.4952 50.7143 35.4034C50.8197 35.3116 50.8724 35.1734 50.8724 34.9889C50.8724 34.2653 50.7806 33.6208 50.5961 33.0546C50.4125 32.4755 50.1425 31.9883 49.7871 31.5938C49.4444 31.1857 49.0236 30.8766 48.5236 30.6658C48.0364 30.4421 47.4701 30.3303 46.8257 30.3303C45.944 30.3303 45.1613 30.5412 44.4769 30.9621C43.806 31.3829 43.2797 31.9692 42.898 32.7191C42.5162 33.4563 42.3253 34.3253 42.3253 35.3252C42.3253 36.3378 42.5162 37.2131 42.898 37.9503C43.2797 38.6875 43.826 39.2538 44.5368 39.6483ZM43.5321 34.6534H49.8028C49.7802 34.0009 49.6698 33.4418 49.4717 32.9755C49.2481 32.4355 48.9127 32.021 48.4646 31.732C48.0301 31.442 47.491 31.2975 46.8457 31.2975C46.1221 31.2975 45.5095 31.4684 45.0095 31.8111C44.5096 32.1401 44.1342 32.601 43.8842 33.1927C43.6964 33.6277 43.5789 34.1145 43.5321 34.6534Z" fill="white"/>
<path fill-rule="evenodd" clip-rule="evenodd" d="M63.4264 39.8265C63.94 40.1028 64.5781 40.2409 65.3417 40.2409C66.1443 40.2409 66.8551 40.0301 67.4732 39.6092C67.9277 39.2991 68.283 38.8862 68.5386 38.3703V39.5892C68.5386 39.7865 68.5913 39.9373 68.6967 40.0428C68.8022 40.1482 68.9467 40.201 69.1312 40.201C69.513 40.201 69.7039 39.9973 69.7039 39.5892V31.0021C69.7039 30.7921 69.6511 30.6339 69.5457 30.5285C69.4403 30.423 69.2957 30.3703 69.1112 30.3703C68.914 30.3703 68.7631 30.423 68.6576 30.5285C68.5522 30.6339 68.4995 30.7912 68.4995 31.0021V35.9569C68.4995 36.9304 68.2231 37.7203 67.6705 38.3257C67.1178 38.9175 66.3943 39.2138 65.4989 39.2138C64.6836 39.2138 64.0845 38.9902 63.7028 38.543C63.321 38.083 63.1301 37.3913 63.1301 36.4705V31.0021C63.1301 30.7921 63.0774 30.6339 62.972 30.5285C62.8665 30.423 62.722 30.3703 62.5375 30.3703C62.3402 30.3703 62.1893 30.423 62.0839 30.5285C61.9784 30.6339 61.9257 30.7912 61.9257 31.0021V36.5296C61.9257 37.3458 62.0512 38.0303 62.3011 38.583C62.5511 39.1356 62.9265 39.5501 63.4264 39.8265Z" fill="white"/>
<path fill-rule="evenodd" clip-rule="evenodd" d="M38.7503 21.7586C39.4011 22.0768 40.1365 22.2359 40.9546 22.2359C41.5454 22.2359 42.0681 22.1377 42.5235 21.9414C42.9779 21.7296 43.3488 21.4414 43.637 21.0778C43.8191 20.8497 43.9631 20.5972 44.0687 20.3199V20.4415C44.0687 21.0024 44.2051 21.4341 44.4778 21.7368C44.7659 22.0395 45.1668 22.1913 45.6822 22.1913C46.1976 22.1913 46.5911 22.0395 46.8638 21.7368C47.1365 21.4341 47.2729 21.0024 47.2729 20.4415V15.3958C47.2729 14.2905 47.0838 13.3888 46.7048 12.6916C46.3266 11.9798 45.7576 11.4572 45.0004 11.1236C44.2587 10.7754 43.3034 10.6009 42.1371 10.6009C41.6072 10.6009 41.0236 10.6536 40.3873 10.76C39.7665 10.8663 39.0993 11.0627 38.3876 11.3508C38.0395 11.4717 37.7895 11.6617 37.6377 11.9189C37.4859 12.1616 37.4104 12.4189 37.4104 12.6916C37.4104 12.9488 37.4786 13.1915 37.615 13.4188C37.7513 13.6305 37.9486 13.7823 38.2058 13.8732C38.463 13.9487 38.7585 13.9114 39.092 13.7596C39.6674 13.5324 40.1901 13.3733 40.66 13.2824C41.1445 13.1761 41.5917 13.1233 42.0008 13.1233C42.728 13.1233 43.2434 13.267 43.5461 13.5551C43.8487 13.8278 44.0005 14.2977 44.0005 14.964V15.3503H43.1825C41.6063 15.3503 40.341 15.4567 39.3866 15.6685C38.4321 15.8657 37.7431 16.2066 37.3186 16.6911C36.8941 17.1601 36.6823 17.8046 36.6823 18.6227C36.6823 19.3044 36.8641 19.918 37.2277 20.4634C37.5913 21.0087 38.0994 21.4405 38.7503 21.7586ZM44.0005 17.1228H43.2052C42.4326 17.1228 41.8035 17.1683 41.3191 17.2592C40.8491 17.3346 40.5082 17.471 40.2964 17.6682C40.0992 17.8655 40.001 18.1382 40.001 18.4863C40.001 18.9108 40.1446 19.259 40.4328 19.5316C40.7355 19.8043 41.1673 19.9407 41.7281 19.9407C42.1671 19.9407 42.5534 19.8425 42.887 19.6453C43.2352 19.4335 43.5079 19.1526 43.7051 18.8045C43.9024 18.4409 44.0005 18.0318 44.0005 17.5773V17.1228Z" fill="white"/>
<path fill-rule="evenodd" clip-rule="evenodd" d="M56.1282 18.7817C55.7646 19.0244 55.3256 19.1453 54.8102 19.1453C54.0376 19.1453 53.424 18.8799 52.9695 18.35C52.515 17.82 52.2878 17.0847 52.2878 16.1457C52.2878 15.5249 52.3859 14.994 52.5832 14.555C52.795 14.1005 53.0904 13.7596 53.4695 13.5324C53.8485 13.2897 54.2948 13.1688 54.8102 13.1688C55.5674 13.1688 56.1737 13.4342 56.6282 13.9641C57.0981 14.4786 57.3326 15.2067 57.3326 16.1457C57.3326 16.7665 57.2263 17.3046 57.0145 17.7591C56.8027 18.1982 56.5073 18.539 56.1282 18.7817ZM52.3787 26.1227C53.1359 26.259 53.9239 26.3272 54.742 26.3272C56.6663 26.3272 58.1362 25.85 59.1506 24.8974C60.1805 23.9575 60.6958 22.5558 60.6958 20.6924V12.3743C60.6958 11.8135 60.5522 11.3899 60.2641 11.1018C59.9759 10.7991 59.5596 10.6473 59.0142 10.6473C58.4688 10.6473 58.0444 10.7991 57.7417 11.1018C57.4535 11.3899 57.3099 11.8135 57.3099 12.3743V12.4221C57.0515 11.9608 56.6653 11.574 56.1509 11.2608C55.4692 10.8218 54.6811 10.6018 53.7876 10.6018C53.045 10.6018 52.3632 10.7382 51.7424 11.0109C51.1361 11.2681 50.6134 11.6399 50.1744 12.1244C49.7499 12.6089 49.4172 13.1924 49.1745 13.8742C48.9473 14.5559 48.8337 15.3131 48.8337 16.1466C48.8337 17.2519 49.0382 18.23 49.4472 19.0781C49.8563 19.9116 50.4316 20.5624 51.1743 21.0324C51.916 21.4869 52.7877 21.7141 53.7876 21.7141C54.6511 21.7141 55.4392 21.4941 56.1509 21.0551C56.6926 20.721 57.0942 20.3121 57.3553 19.8285V21.0778C57.3553 21.9868 57.1126 22.6613 56.6282 23.1003C56.1437 23.5393 55.4165 23.7593 54.4466 23.7593C54.0376 23.7593 53.5449 23.7139 52.9695 23.623C52.4087 23.5321 51.7951 23.3348 51.1288 23.0321C50.8561 22.9112 50.5989 22.8885 50.3562 22.964C50.1135 23.0549 49.909 23.2067 49.7426 23.4184C49.5908 23.6302 49.4999 23.8729 49.4699 24.1456C49.4545 24.4183 49.5154 24.6756 49.6517 24.9183C49.8035 25.161 50.0535 25.3573 50.4016 25.5091C50.977 25.7818 51.636 25.9863 52.3787 26.1227Z" fill="white"/>
<path fill-rule="evenodd" clip-rule="evenodd" d="M63.3609 21.7359C63.6636 22.0386 64.1036 22.1904 64.6789 22.1904C65.2398 22.1904 65.6643 22.0395 65.9515 21.7359C66.2542 21.4332 66.406 21.0014 66.406 20.4406V16.2129C66.406 15.4103 66.6105 14.7967 67.0196 14.3723C67.4431 13.9478 68.0876 13.6978 68.9511 13.6223L69.4738 13.5769C69.9892 13.516 70.3528 13.3496 70.5646 13.077C70.7918 12.8043 70.89 12.4334 70.86 11.9635C70.8446 11.4635 70.7309 11.1072 70.5191 10.8954C70.3219 10.6682 70.0347 10.57 69.6556 10.6C68.6712 10.6609 67.8676 10.9409 67.2468 11.4408C66.815 11.7885 66.4892 12.2351 66.2697 12.7807V12.3725C66.2697 11.8117 66.126 11.3881 65.8379 11.0999C65.5497 10.7972 65.1334 10.6454 64.588 10.6454C64.0581 10.6454 63.6409 10.7972 63.3382 11.0999C63.05 11.3881 62.9064 11.8117 62.9064 12.3725V20.4406C62.9064 21.0014 63.0582 21.4332 63.3609 21.7359Z" fill="white"/>
<path fill-rule="evenodd" clip-rule="evenodd" d="M30.1377 25.4746C30.1377 24.1883 29.9969 22.9449 29.7269 21.7605C28.212 15.1577 22.686 10.4491 15.4223 10.4491C11.6343 10.4491 8.19005 11.7319 5.52796 13.9088C4.79932 12.4444 5.09399 10.7782 6.11884 9.11836C6.14975 9.05746 6.26155 8.92838 6.67059 8.81476C7.06873 8.70477 7.61503 8.64751 8.30403 8.62024C8.76049 8.6024 9.28514 8.59874 9.84671 8.59482C10.8877 8.58755 12.0554 8.5794 13.1507 8.47844C14.8669 8.32027 16.6666 7.92396 18.0092 6.82864C19.399 5.69423 20.1753 3.91722 20.0489 1.28845C20.0183 0.662634 19.2688 0.239643 18.7137 0.68393C17.8839 1.34807 16.8218 1.61475 15.5459 1.7338C14.9464 1.78946 14.3269 1.81205 13.6764 1.83576C12.992 1.86121 12.1572 1.89651 11.4536 1.97832C10.0456 2.14193 8.60218 2.51825 7.38415 3.54722C6.18143 4.56229 5.28702 6.13602 4.78468 8.51621C3.56378 10.5536 3.18634 12.8265 4.41894 14.9126C1.72546 17.6092 0.0859375 21.8741 0.0859375 26.0572H0.0868474C0.0868474 34.5789 6.87329 40.5 15.4232 40.5C24.0176 40.5 30.1377 33.9517 30.1377 25.4746ZM27.3908 27.2843C28.3707 26.1608 28.8806 24.5974 28.3034 22.0631C28.0089 20.7788 27.5762 19.9407 27.0763 19.3944C26.5864 18.8581 25.9901 18.5563 25.2729 18.4145C24.5384 18.2691 23.6785 18.2927 22.6896 18.4245C21.7483 18.5499 20.7371 18.766 19.6503 18.9981C17.3861 19.4808 14.6524 20.0498 12.1272 19.7707C9.71141 19.5035 7.35334 18.4964 5.2954 16.0959C2.96059 18.5111 1.54122 21.8007 1.54122 25.5118C1.54122 32.9565 7.27055 38.6891 14.7193 39.0296C14.8885 36.4815 15.9324 34.6994 17.4057 33.3581C18.8887 32.0084 21.0958 30.9785 22.8414 30.164C24.7239 29.2841 26.3509 28.4769 27.3908 27.2843ZM22.4968 16.9838C23.5549 16.8429 25.1108 16.9269 26.0697 17.116C23.7265 13.9106 19.963 11.9035 15.4223 11.9035C11.9261 11.9035 8.77402 13.1003 6.36161 15.1066C8.17467 17.2425 10.2009 18.0954 12.2863 18.3263C14.5415 18.5754 17.0894 18.058 19.3864 17.568C20.4473 17.3415 21.503 17.1161 22.4968 16.9838ZM11.6227 3.42269C10.3429 3.57176 9.22846 3.89445 8.32312 4.65799C7.66368 5.21485 7.06624 6.04798 6.61556 7.33372C7.11004 7.23347 7.67062 7.18965 8.24677 7.16678C8.79983 7.14526 9.36845 7.14202 9.94975 7.13872C10.9401 7.13308 11.9672 7.12723 13.0171 7.03043C14.6542 6.87954 16.0922 6.51595 17.0902 5.7015C17.8747 5.06104 18.4655 4.07532 18.5864 2.46765C17.6676 2.90781 16.6642 3.08979 15.6813 3.18181C15.0537 3.24007 14.4079 3.26404 13.7835 3.2872C13.0972 3.31266 12.2635 3.34815 11.6227 3.42269ZM28.4245 28.3104C27.2942 34.3481 22.5606 38.7081 16.1775 39.0269C16.3401 36.925 17.1957 35.5155 18.3846 34.4335C19.6971 33.2386 21.6567 32.3227 23.4576 31.4811C25.2542 30.6405 27.1484 29.7339 28.4245 28.3104Z" fill="white"/>
</svg>
